<?xml version="1.0" encoding="UTF-8" standalone="no"?>
<!DOCTYPE svg PUBLIC "-//W3C//DTD SVG 1.1//EN" "http://www.w3.org/Graphics/SVG/1.1/DTD/svg11.dtd">
<!-- Created with Vectornator (http://vectornator.io/) -->
<svg height="100%" stroke-miterlimit="10" style="fill-rule:nonzero;clip-rule:evenodd;stroke-linecap:round;stroke-linejoin:round;" version="1.1" viewBox="853.058 1203.06 1648.22 379.393" width="100%" xml:space="preserve" xmlns="http://www.w3.org/2000/svg" xmlns:vectornator="http://vectornator.io" xmlns:xlink="http://www.w3.org/1999/xlink">
<defs>
	 <mask id="mask1">
        <rect x="853.058" y="1203.06" width="1648.22" height="379.393" fill="white"/>
    </mask>
</defs>
<clipPath id="ArtboardFrame">
<rect height="379.393" width="1648.22" x="853.058" y="1203.06"/>
</clipPath>
<g clip-path="url(#ArtboardFrame)" id="Layer" vectornator:layerName="Layer">
<g opacity="1" vectornator:layerName="Group 1">
<path d="M1184.75 1330.74L1168.79 1314.78L1168.79 1203.06L1136.87 1203.06L1136.87 1330.74L1168.79 1362.66L1328.39 1362.66L1328.39 1330.74L1184.75 1330.74Z" fill="#000000" fill-rule="nonzero" opacity="1" stroke="none"/>
<path d="M1519.65 1203.06L1391.97 1203.06L1360.05 1234.98L1360.05 1362.66L1391.97 1362.66L1391.97 1250.94L1407.93 1234.98L1503.69 1234.98L1519.65 1250.94L1519.65 1266.9L1423.89 1266.9L1423.89 1298.82L1519.65 1298.82L1519.65 1362.66L1551.57 1362.66L1551.57 1234.98L1519.65 1203.06Z" fill="#000000" fill-rule="nonzero" opacity="1" stroke="none"/>
<path d="M1734.17 1203.06L1720.15 1217.07L1670.33 1266.9L1606.49 1203.06L1574.57 1203.06L1574.57 1219.02L1654.37 1298.82L1654.37 1362.66L1686.29 1362.66L1686.29 1298.82L1766.09 1219.02L1766.09 1203.06L1734.17 1203.06Z" fill="#000000" fill-rule="nonzero" opacity="1" stroke="none"/>
<path d="M1986.07 1234.98L1986.07 1203.06L1794.55 1203.06L1794.55 1234.98L1986.07 1234.98ZM1826.47 1298.82L1954.15 1298.82L1954.15 1266.9L1794.55 1266.9L1794.55 1362.66L1986.07 1362.66L1986.07 1330.74L1826.47 1330.74L1826.47 1298.82Z" fill="#000000" fill-rule="nonzero" opacity="1" stroke="none"/>
<path d="M2214.73 1234.98L2182.81 1203.06L2023.21 1203.06L2023.21 1362.66L2055.13 1362.66L2055.13 1234.98L2166.85 1234.98L2182.81 1250.94L2182.81 1282.86L2167.5 1297.5L2135.56 1265.33L2116.83 1282.7L2192.16 1362.66L2214.73 1362.66L2211.96 1343.06L2192.14 1321.3L2214.73 1298.82L2214.73 1234.98Z" fill="#000000" fill-rule="nonzero" opacity="1" stroke="none"/>
<path d="M853.058 1420.06L853.058 1515.82L884.978 1515.82L884.978 1451.98L1012.66 1451.98L1012.66 1531.78L996.698 1547.74L853.058 1547.74L853.058 1579.66L1012.66 1579.66L1044.58 1547.74L1044.58 1420.06L853.058 1420.06Z" fill="#000000" fill-rule="nonzero" opacity="1" stroke="none"/>
<path d="M1234.7 1420.06L1220.68 1434.07L1170.86 1483.9L1107.02 1420.06L1075.1 1420.06L1075.1 1436.02L1154.9 1515.82L1154.9 1579.66L1186.82 1579.66L1186.82 1515.82L1266.62 1436.02L1266.62 1420.06L1234.7 1420.06Z" fill="#000000" fill-rule="nonzero" opacity="1" stroke="none"/>
<path d="M1458.33 1420.06L1458.33 1547.74L1442.37 1547.74L1426.41 1531.78L1394.49 1531.78L1394.49 1547.74L1426.41 1579.66L1490.25 1579.66L1490.25 1420.06L1458.33 1420.06ZM1426.41 1499.86L1426.41 1483.9L1362.57 1420.06L1298.73 1420.06L1298.73 1579.66L1330.65 1579.66L1330.65 1451.98L1346.61 1451.98L1394.49 1499.86L1426.41 1499.86Z" fill="#000000" fill-rule="nonzero" opacity="1" stroke="none"/>
<path d="M1694.74 1420.06L1567.06 1420.06L1535.14 1451.98L1535.14 1579.66L1567.06 1579.66L1567.06 1467.94L1583.02 1451.98L1678.78 1451.98L1694.74 1467.94L1694.74 1483.9L1598.98 1483.9L1598.98 1515.82L1694.74 1515.82L1694.74 1579.66L1726.66 1579.66L1726.66 1451.98L1694.74 1420.06Z" fill="#000000" fill-rule="nonzero" opacity="1" stroke="none"/>
<path d="M1771.09 1422.85L1771.09 1582.45L1803.01 1582.45L1803.01 1454.77L1818.97 1454.77L1866.85 1502.65L1890.79 1478.71L1834.93 1422.85L1771.09 1422.85ZM1898.77 1422.85L1890.79 1430.83L1914.73 1454.77L1930.69 1454.77L1930.69 1582.45L1962.61 1582.45L1962.61 1422.85L1898.77 1422.85Z" fill="#000000" fill-rule="nonzero" opacity="1" stroke="none"/>
<path d="M2024.59 1420.06L2008.63 1420.06L2008.63 1579.66L2040.55 1579.66L2040.55 1436.02L2024.59 1420.06Z" fill="#000000" fill-rule="nonzero" opacity="1" stroke="none"/>
<path d="M2276.5 1451.98L2276.5 1420.06L2084.98 1420.06L2084.98 1547.74L2116.9 1579.66L2276.5 1579.66L2276.5 1547.74L2132.86 1547.74L2116.9 1531.78L2116.9 1451.98L2276.5 1451.98Z" fill="#000000" fill-rule="nonzero" opacity="1" stroke="none"/>
<path d="M2501.27 1451.98L2501.27 1420.06L2341.67 1420.06L2309.75 1451.98L2309.75 1483.9L2341.67 1515.82L2453.39 1515.82L2469.35 1531.78L2453.39 1547.74L2309.75 1547.74L2309.75 1579.66L2469.35 1579.66L2501.27 1547.74L2501.27 1515.82L2469.35 1483.9L2357.63 1483.9L2341.67 1467.94L2357.63 1451.98L2501.27 1451.98Z" fill="#000000" fill-rule="nonzero" opacity="1" stroke="none"/>
</g>
</g>
</svg>
