<svg width="327" height="576" viewBox="0 0 327 576" fill="none" xmlns="http://www.w3.org/2000/svg">
<path id="LayerDynamicsLogo" d="M326 71.5387V236.1L292.703 250.084L326 261.889V392.96L281.263 412.79L326 434.146V509.682L165.904 574.788L0.5 504.053V431.281L35.3887 419.473L0.5 404.553V351.053L36.2764 337.471L0.5 322.632V261.805L34.7812 250.081L0.5 236.192V162.932L37.334 146.701L0.5 132.278V71.5387L155.297 0.545532L326 71.5387ZM6.5 75.3873V128.183L52.9551 146.376L6.5 166.844V232.149L51.9346 250.556L6.5 266.093V318.625L52.5332 337.719L6.5 355.193V400.593L52.1768 420.128L6.5 435.584V500.093L165.962 568.287L320 505.644V437.93L266.913 412.589L320 389.055V266.127L276.081 250.557L320 232.112V75.5465L155.418 7.08948L6.5 75.3873ZM312 500.261L170 558.009V505.621L312 446.454V500.261ZM162 505.624V557.892L14.5 494.813V444.443L162 505.624ZM176 509.62V549.091L306 496.223V455.453L176 509.62ZM20.5 490.853L156 548.8V509.63L20.5 453.427V490.853ZM253.346 414.975L306.194 440.206L165.995 498.622L21.8555 438.834L63.2021 424.842L165.969 468.79L228.5 443.135V395.27L184.541 377.248L253.346 345.688V414.975ZM199.604 376.939L234.5 391.246V447.161L165.92 475.295L62.9512 431.26L38.8906 439.403L165.99 492.123L291.487 439.834L247.346 418.76V355.041L199.604 376.939ZM220.5 437.77L170 458.488V424.636L220.5 403.92V437.77ZM162 424.633V458.392L14.5 395.313V363.924L162 424.633ZM176 428.661V449.541L214.5 433.746V412.865L176 428.661ZM20.5 391.353L156 449.3V428.651L20.5 372.881V391.353ZM165.885 384.735L174.393 381.733L213.958 397.954L166.002 417.628L21.375 358.104L63.3047 342.186L165.885 384.735ZM37.6865 358.329L166.006 411.14L198.146 397.955L174.232 388.152L165.711 391.16L63.207 348.64L37.6865 358.329ZM312 383.851L261.346 406.305V333.217L170 375.117V337.564L312 275.084V383.851ZM176 341.478V365.763L267.346 323.865V397.082L306 379.947V284.278L176 341.478ZM162 337.601V374.464L14.5 313.282V274.996L162 337.601ZM20.5 309.275L156 365.479V341.572L20.5 284.06V309.275ZM166.027 296.781L265.122 255.16L305.157 269.353L165.971 330.595L21.6836 269.355L63.25 255.141L166.027 296.781ZM38.4619 269.958L165.928 324.059L288.895 269.954L265.306 261.59L166.068 303.272L63.0723 261.543L38.4619 269.958ZM162 232.197V286.518L14.5 226.757V175.284L162 232.197ZM312 226.795L170 286.434V232.222L220.5 213.231V235.385L254.646 221.578L254.645 221.577L312 198.385V226.795ZM20.5 222.714L156 277.612V236.312L20.5 184.03V222.714ZM265.295 223.742L265.296 223.743L214.5 244.284V221.897L176 236.376V277.406L306 222.806V207.283L265.295 223.742ZM164.586 188.695L164.594 188.698L164.602 188.702L213.249 207.411L166.018 225.172L20.9756 169.21L63.4844 150.479L164.586 188.695ZM253.346 213.474L228.5 223.52V204.707L176.664 184.77L253.346 152.203V213.474ZM36.6914 168.841L166.045 218.752L196.371 207.347L162.448 194.301L63.6572 156.959L36.6914 168.841ZM192.662 184.495L234.5 200.587V214.623L247.346 209.428V161.269L192.662 184.495ZM312 189.756L261.346 210.239V142.896L170 178.908V138.695L312 83.7897V189.756ZM176 142.807V169.84L267.346 133.831V201.34L306 185.71V92.5416L176 142.807ZM162 138.73V179.165L64.8623 142.448L64.8457 142.441L64.8291 142.435L14.5 122.724V83.7135L162 138.73ZM20.5 118.63L67.0059 136.843L156 170.482V142.896L20.5 92.3551V118.63ZM305.239 78.0905L165.974 131.674L20.9238 77.5719L155.58 15.816L305.239 78.0905ZM36.5615 77.0006L165.934 125.256L289.1 77.8971L155.701 22.36L36.5615 77.0006Z" fill="black" stroke="black"/>
</svg>
