{
	"asset":{
		"generator":"Khronos glTF Blender I/O v5.1.19",
		"version":"2.0"
	},
	"extensionsUsed":[
		"KHR_materials_clearcoat"
	],
	"scene":0,
	"scenes":[
		{
			"name":"Scene",
			"nodes":[
				17
			]
		}
	],
	"nodes":[
		{
			"mesh":0,
			"name":"Body1",
			"scale":[
				10,
				10,
				10
			]
		},
		{
			"mesh":1,
			"name":"Body10",
			"scale":[
				10,
				10,
				10
			]
		},
		{
			"mesh":2,
			"name":"Body11",
			"scale":[
				10,
				10,
				10
			]
		},
		{
			"mesh":3,
			"name":"Body12",
			"scale":[
				10,
				10,
				10
			]
		},
		{
			"mesh":4,
			"name":"Body13",
			"scale":[
				10,
				10,
				10
			]
		},
		{
			"mesh":5,
			"name":"Body14",
			"scale":[
				10,
				10,
				10
			]
		},
		{
			"mesh":6,
			"name":"Body15",
			"scale":[
				10,
				10,
				10
			]
		},
		{
			"mesh":7,
			"name":"Body16",
			"scale":[
				10,
				10,
				10
			]
		},
		{
			"mesh":8,
			"name":"Body17",
			"scale":[
				10,
				10,
				10
			]
		},
		{
			"mesh":9,
			"name":"Body2",
			"scale":[
				10,
				10,
				10
			]
		},
		{
			"mesh":10,
			"name":"Body3",
			"scale":[
				10,
				10,
				10
			]
		},
		{
			"mesh":11,
			"name":"Body4",
			"scale":[
				10,
				10,
				10
			]
		},
		{
			"mesh":12,
			"name":"Body5",
			"scale":[
				10,
				10,
				10
			]
		},
		{
			"mesh":13,
			"name":"Body6",
			"scale":[
				10,
				10,
				10
			]
		},
		{
			"mesh":14,
			"name":"Body7",
			"scale":[
				10,
				10,
				10
			]
		},
		{
			"mesh":15,
			"name":"Body8",
			"scale":[
				10,
				10,
				10
			]
		},
		{
			"mesh":16,
			"name":"Body9",
			"scale":[
				10,
				10,
				10
			]
		},
		{
			"children":[
				0,
				1,
				2,
				3,
				4,
				5,
				6,
				7,
				8,
				9,
				10,
				11,
				12,
				13,
				14,
				15,
				16
			],
			"name":"LayerDynamicsLogo",
			"scale":[
				0.08029824495315552,
				0.08029824495315552,
				0.08029824495315552
			]
		}
	],
	"materials":[
		{
			"doubleSided":true,
			"extensions":{
				"KHR_materials_clearcoat":{
					"clearcoatRoughnessFactor":0.009999999776482582
				}
			},
			"name":"XID_PEEK_AF694CCC2AF090AED56362E0ED23CA98",
			"pbrMetallicRoughness":{
				"baseColorFactor":[
					0.6000000238418579,
					0.5098040103912354,
					0.36862701177597046,
					1
				],
				"metallicFactor":0,
				"roughnessFactor":0.4472140073776245
			}
		}
	],
	"meshes":[
		{
			"name":"Body1",
			"primitives":[
				{
					"attributes":{
						"POSITION":0,
						"NORMAL":1,
						"TEXCOORD_0":2
					},
					"indices":3,
					"material":0
				}
			]
		},
		{
			"name":"Body10",
			"primitives":[
				{
					"attributes":{
						"POSITION":4,
						"NORMAL":5,
						"TEXCOORD_0":6
					},
					"indices":7,
					"material":0
				}
			]
		},
		{
			"name":"Body11",
			"primitives":[
				{
					"attributes":{
						"POSITION":8,
						"NORMAL":9,
						"TEXCOORD_0":10
					},
					"indices":11,
					"material":0
				}
			]
		},
		{
			"name":"Body12",
			"primitives":[
				{
					"attributes":{
						"POSITION":12,
						"NORMAL":13,
						"TEXCOORD_0":14
					},
					"indices":3,
					"material":0
				}
			]
		},
		{
			"name":"Body13",
			"primitives":[
				{
					"attributes":{
						"POSITION":15,
						"NORMAL":16,
						"TEXCOORD_0":17
					},
					"indices":3,
					"material":0
				}
			]
		},
		{
			"name":"Body14",
			"primitives":[
				{
					"attributes":{
						"POSITION":18,
						"NORMAL":19,
						"TEXCOORD_0":20
					},
					"indices":21,
					"material":0
				}
			]
		},
		{
			"name":"Body15",
			"primitives":[
				{
					"attributes":{
						"POSITION":22,
						"NORMAL":23,
						"TEXCOORD_0":24
					},
					"indices":3,
					"material":0
				}
			]
		},
		{
			"name":"Body16",
			"primitives":[
				{
					"attributes":{
						"POSITION":25,
						"NORMAL":26,
						"TEXCOORD_0":27
					},
					"indices":28,
					"material":0
				}
			]
		},
		{
			"name":"Body17",
			"primitives":[
				{
					"attributes":{
						"POSITION":29,
						"NORMAL":30,
						"TEXCOORD_0":31
					},
					"indices":3,
					"material":0
				}
			]
		},
		{
			"name":"Body2",
			"primitives":[
				{
					"attributes":{
						"POSITION":32,
						"NORMAL":33,
						"TEXCOORD_0":34
					},
					"indices":11,
					"material":0
				}
			]
		},
		{
			"name":"Body3",
			"primitives":[
				{
					"attributes":{
						"POSITION":35,
						"NORMAL":36,
						"TEXCOORD_0":37
					},
					"indices":38,
					"material":0
				}
			]
		},
		{
			"name":"Body4",
			"primitives":[
				{
					"attributes":{
						"POSITION":39,
						"NORMAL":40,
						"TEXCOORD_0":41
					},
					"indices":3,
					"material":0
				}
			]
		},
		{
			"name":"Body5",
			"primitives":[
				{
					"attributes":{
						"POSITION":42,
						"NORMAL":43,
						"TEXCOORD_0":44
					},
					"indices":45,
					"material":0
				}
			]
		},
		{
			"name":"Body6",
			"primitives":[
				{
					"attributes":{
						"POSITION":46,
						"NORMAL":47,
						"TEXCOORD_0":48
					},
					"indices":49,
					"material":0
				}
			]
		},
		{
			"name":"Body7",
			"primitives":[
				{
					"attributes":{
						"POSITION":50,
						"NORMAL":51,
						"TEXCOORD_0":52
					},
					"indices":53,
					"material":0
				}
			]
		},
		{
			"name":"Body8",
			"primitives":[
				{
					"attributes":{
						"POSITION":54,
						"NORMAL":55,
						"TEXCOORD_0":56
					},
					"indices":11,
					"material":0
				}
			]
		},
		{
			"name":"Body9",
			"primitives":[
				{
					"attributes":{
						"POSITION":57,
						"NORMAL":58,
						"TEXCOORD_0":59
					},
					"indices":11,
					"material":0
				}
			]
		}
	],
	"accessors":[
		{
			"bufferView":0,
			"componentType":5126,
			"count":48,
			"max":[
				0.04507613182067871,
				0,
				-0.24344566464424133
			],
			"min":[
				-3.8575279712677,
				-1,
				-3.1865122318267822
			],
			"type":"VEC3"
		},
		{
			"bufferView":1,
			"componentType":5126,
			"count":48,
			"type":"VEC3"
		},
		{
			"bufferView":2,
			"componentType":5126,
			"count":48,
			"type":"VEC2"
		},
		{
			"bufferView":3,
			"componentType":5123,
			"count":96,
			"type":"SCALAR"
		},
		{
			"bufferView":4,
			"componentType":5126,
			"count":288,
			"max":[
				4.384243011474609,
				0,
				7.383698463439941
			],
			"min":[
				-4.227944850921631,
				-1,
				-7.809800624847412
			],
			"type":"VEC3"
		},
		{
			"bufferView":5,
			"componentType":5126,
			"count":288,
			"type":"VEC3"
		},
		{
			"bufferView":6,
			"componentType":5126,
			"count":288,
			"type":"VEC2"
		},
		{
			"bufferView":7,
			"componentType":5123,
			"count":576,
			"type":"SCALAR"
		},
		{
			"bufferView":8,
			"componentType":5126,
			"count":72,
			"max":[
				1.4197980165481567,
				0,
				3.225506067276001
			],
			"min":[
				-3.6756269931793213,
				-1,
				1.2294368743896484
			],
			"type":"VEC3"
		},
		{
			"bufferView":9,
			"componentType":5126,
			"count":72,
			"type":"VEC3"
		},
		{
			"bufferView":10,
			"componentType":5126,
			"count":72,
			"type":"VEC2"
		},
		{
			"bufferView":11,
			"componentType":5123,
			"count":144,
			"type":"SCALAR"
		},
		{
			"bufferView":12,
			"componentType":5126,
			"count":48,
			"max":[
				0.04507613182067871,
				0,
				2.083458423614502
			],
			"min":[
				-3.8575279712677,
				-1,
				-0.5482986569404602
			],
			"type":"VEC3"
		},
		{
			"bufferView":13,
			"componentType":5126,
			"count":48,
			"type":"VEC3"
		},
		{
			"bufferView":14,
			"componentType":5126,
			"count":48,
			"type":"VEC2"
		},
		{
			"bufferView":15,
			"componentType":5126,
			"count":48,
			"max":[
				0.04507613182067871,
				0,
				4.304053783416748
			],
			"min":[
				-3.8575279712677,
				-1,
				1.8045881986618042
			],
			"type":"VEC3"
		},
		{
			"bufferView":16,
			"componentType":5126,
			"count":48,
			"type":"VEC3"
		},
		{
			"bufferView":17,
			"componentType":5126,
			"count":48,
			"type":"VEC2"
		},
		{
			"bufferView":18,
			"componentType":5126,
			"count":72,
			"max":[
				0.04507613182067871,
				0,
				-3.083827495574951
			],
			"min":[
				-3.8575279712677,
				-1,
				-5.609314918518066
			],
			"type":"VEC3"
		},
		{
			"bufferView":19,
			"componentType":5126,
			"count":72,
			"type":"VEC3"
		},
		{
			"bufferView":20,
			"componentType":5126,
			"count":72,
			"type":"VEC2"
		},
		{
			"bufferView":21,
			"componentType":5123,
			"count":144,
			"type":"SCALAR"
		},
		{
			"bufferView":22,
			"componentType":5126,
			"count":48,
			"max":[
				4.0138258934021,
				0,
				6.93975305557251
			],
			"min":[
				0.25674280524253845,
				-1,
				3.988194465637207
			],
			"type":"VEC3"
		},
		{
			"bufferView":23,
			"componentType":5126,
			"count":48,
			"type":"VEC3"
		},
		{
			"bufferView":24,
			"componentType":5126,
			"count":48,
			"type":"VEC2"
		},
		{
			"bufferView":25,
			"componentType":5126,
			"count":84,
			"max":[
				4.0138258934021,
				0,
				-0.24566856026649475
			],
			"min":[
				0.25674280524253845,
				-1,
				-2.575298309326172
			],
			"type":"VEC3"
		},
		{
			"bufferView":26,
			"componentType":5126,
			"count":84,
			"type":"VEC3"
		},
		{
			"bufferView":27,
			"componentType":5126,
			"count":84,
			"type":"VEC2"
		},
		{
			"bufferView":28,
			"componentType":5123,
			"count":168,
			"type":"SCALAR"
		},
		{
			"bufferView":29,
			"componentType":5126,
			"count":48,
			"max":[
				1.592888593673706,
				0,
				4.306593894958496
			],
			"min":[
				0.25674280524253845,
				-1,
				2.8628158569335938
			],
			"type":"VEC3"
		},
		{
			"bufferView":30,
			"componentType":5126,
			"count":48,
			"type":"VEC3"
		},
		{
			"bufferView":31,
			"componentType":5126,
			"count":48,
			"type":"VEC2"
		},
		{
			"bufferView":32,
			"componentType":5126,
			"count":72,
			"max":[
				4.0138258934021,
				0,
				-2.2616610527038574
			],
			"min":[
				0.25674280524253845,
				-1,
				-5.607298851013184
			],
			"type":"VEC3"
		},
		{
			"bufferView":33,
			"componentType":5126,
			"count":72,
			"type":"VEC3"
		},
		{
			"bufferView":34,
			"componentType":5126,
			"count":72,
			"type":"VEC2"
		},
		{
			"bufferView":35,
			"componentType":5126,
			"count":48,
			"max":[
				3.8349416255950928,
				0,
				-4.340360164642334
			],
			"min":[
				-3.6875650882720947,
				-1,
				-7.405769348144531
			],
			"type":"VEC3"
		},
		{
			"bufferView":36,
			"componentType":5126,
			"count":48,
			"type":"VEC3"
		},
		{
			"bufferView":37,
			"componentType":5126,
			"count":48,
			"type":"VEC2"
		},
		{
			"bufferView":38,
			"componentType":5123,
			"count":96,
			"type":"SCALAR"
		},
		{
			"bufferView":39,
			"componentType":5126,
			"count":48,
			"max":[
				0.04507613182067871,
				0,
				6.93665885925293
			],
			"min":[
				-3.8575279712677,
				-1,
				3.9349863529205322
			],
			"type":"VEC3"
		},
		{
			"bufferView":40,
			"componentType":5126,
			"count":48,
			"type":"VEC3"
		},
		{
			"bufferView":41,
			"componentType":5126,
			"count":48,
			"type":"VEC2"
		},
		{
			"bufferView":42,
			"componentType":5126,
			"count":72,
			"max":[
				1.4010391235351562,
				0,
				-1.8665587902069092
			],
			"min":[
				-3.68619441986084,
				-1,
				-3.842810869216919
			],
			"type":"VEC3"
		},
		{
			"bufferView":43,
			"componentType":5126,
			"count":72,
			"type":"VEC3"
		},
		{
			"bufferView":44,
			"componentType":5126,
			"count":72,
			"type":"VEC2"
		},
		{
			"bufferView":45,
			"componentType":5123,
			"count":144,
			"type":"SCALAR"
		},
		{
			"bufferView":46,
			"componentType":5126,
			"count":60,
			"max":[
				2.4619388580322266,
				0,
				-1.9102678298950195
			],
			"min":[
				0.4330611824989319,
				-1,
				-3.797196865081787
			],
			"type":"VEC3"
		},
		{
			"bufferView":47,
			"componentType":5126,
			"count":60,
			"type":"VEC3"
		},
		{
			"bufferView":48,
			"componentType":5126,
			"count":60,
			"type":"VEC2"
		},
		{
			"bufferView":49,
			"componentType":5123,
			"count":120,
			"type":"SCALAR"
		},
		{
			"bufferView":50,
			"componentType":5126,
			"count":120,
			"max":[
				3.8602089881896973,
				0,
				5.368472576141357
			],
			"min":[
				-3.6629137992858887,
				-1,
				1.3220934867858887
			],
			"type":"VEC3"
		},
		{
			"bufferView":51,
			"componentType":5126,
			"count":120,
			"type":"VEC3"
		},
		{
			"bufferView":52,
			"componentType":5126,
			"count":120,
			"type":"VEC2"
		},
		{
			"bufferView":53,
			"componentType":5123,
			"count":240,
			"type":"SCALAR"
		},
		{
			"bufferView":54,
			"componentType":5126,
			"count":72,
			"max":[
				3.8327720165252686,
				0,
				0.922758162021637
			],
			"min":[
				-3.66746187210083,
				-1,
				-1.0736287832260132
			],
			"type":"VEC3"
		},
		{
			"bufferView":55,
			"componentType":5126,
			"count":72,
			"type":"VEC3"
		},
		{
			"bufferView":56,
			"componentType":5126,
			"count":72,
			"type":"VEC2"
		},
		{
			"bufferView":57,
			"componentType":5126,
			"count":72,
			"max":[
				4.0138258934021,
				0,
				2.9259183406829834
			],
			"min":[
				0.25674280524253845,
				-1,
				-0.5459699630737305
			],
			"type":"VEC3"
		},
		{
			"bufferView":58,
			"componentType":5126,
			"count":72,
			"type":"VEC3"
		},
		{
			"bufferView":59,
			"componentType":5126,
			"count":72,
			"type":"VEC2"
		}
	],
	"bufferViews":[
		{
			"buffer":0,
			"byteLength":576,
			"byteOffset":0,
			"target":34962
		},
		{
			"buffer":0,
			"byteLength":576,
			"byteOffset":576,
			"target":34962
		},
		{
			"buffer":0,
			"byteLength":384,
			"byteOffset":1152,
			"target":34962
		},
		{
			"buffer":0,
			"byteLength":192,
			"byteOffset":1536,
			"target":34963
		},
		{
			"buffer":0,
			"byteLength":3456,
			"byteOffset":1728,
			"target":34962
		},
		{
			"buffer":0,
			"byteLength":3456,
			"byteOffset":5184,
			"target":34962
		},
		{
			"buffer":0,
			"byteLength":2304,
			"byteOffset":8640,
			"target":34962
		},
		{
			"buffer":0,
			"byteLength":1152,
			"byteOffset":10944,
			"target":34963
		},
		{
			"buffer":0,
			"byteLength":864,
			"byteOffset":12096,
			"target":34962
		},
		{
			"buffer":0,
			"byteLength":864,
			"byteOffset":12960,
			"target":34962
		},
		{
			"buffer":0,
			"byteLength":576,
			"byteOffset":13824,
			"target":34962
		},
		{
			"buffer":0,
			"byteLength":288,
			"byteOffset":14400,
			"target":34963
		},
		{
			"buffer":0,
			"byteLength":576,
			"byteOffset":14688,
			"target":34962
		},
		{
			"buffer":0,
			"byteLength":576,
			"byteOffset":15264,
			"target":34962
		},
		{
			"buffer":0,
			"byteLength":384,
			"byteOffset":15840,
			"target":34962
		},
		{
			"buffer":0,
			"byteLength":576,
			"byteOffset":16224,
			"target":34962
		},
		{
			"buffer":0,
			"byteLength":576,
			"byteOffset":16800,
			"target":34962
		},
		{
			"buffer":0,
			"byteLength":384,
			"byteOffset":17376,
			"target":34962
		},
		{
			"buffer":0,
			"byteLength":864,
			"byteOffset":17760,
			"target":34962
		},
		{
			"buffer":0,
			"byteLength":864,
			"byteOffset":18624,
			"target":34962
		},
		{
			"buffer":0,
			"byteLength":576,
			"byteOffset":19488,
			"target":34962
		},
		{
			"buffer":0,
			"byteLength":288,
			"byteOffset":20064,
			"target":34963
		},
		{
			"buffer":0,
			"byteLength":576,
			"byteOffset":20352,
			"target":34962
		},
		{
			"buffer":0,
			"byteLength":576,
			"byteOffset":20928,
			"target":34962
		},
		{
			"buffer":0,
			"byteLength":384,
			"byteOffset":21504,
			"target":34962
		},
		{
			"buffer":0,
			"byteLength":1008,
			"byteOffset":21888,
			"target":34962
		},
		{
			"buffer":0,
			"byteLength":1008,
			"byteOffset":22896,
			"target":34962
		},
		{
			"buffer":0,
			"byteLength":672,
			"byteOffset":23904,
			"target":34962
		},
		{
			"buffer":0,
			"byteLength":336,
			"byteOffset":24576,
			"target":34963
		},
		{
			"buffer":0,
			"byteLength":576,
			"byteOffset":24912,
			"target":34962
		},
		{
			"buffer":0,
			"byteLength":576,
			"byteOffset":25488,
			"target":34962
		},
		{
			"buffer":0,
			"byteLength":384,
			"byteOffset":26064,
			"target":34962
		},
		{
			"buffer":0,
			"byteLength":864,
			"byteOffset":26448,
			"target":34962
		},
		{
			"buffer":0,
			"byteLength":864,
			"byteOffset":27312,
			"target":34962
		},
		{
			"buffer":0,
			"byteLength":576,
			"byteOffset":28176,
			"target":34962
		},
		{
			"buffer":0,
			"byteLength":576,
			"byteOffset":28752,
			"target":34962
		},
		{
			"buffer":0,
			"byteLength":576,
			"byteOffset":29328,
			"target":34962
		},
		{
			"buffer":0,
			"byteLength":384,
			"byteOffset":29904,
			"target":34962
		},
		{
			"buffer":0,
			"byteLength":192,
			"byteOffset":30288,
			"target":34963
		},
		{
			"buffer":0,
			"byteLength":576,
			"byteOffset":30480,
			"target":34962
		},
		{
			"buffer":0,
			"byteLength":576,
			"byteOffset":31056,
			"target":34962
		},
		{
			"buffer":0,
			"byteLength":384,
			"byteOffset":31632,
			"target":34962
		},
		{
			"buffer":0,
			"byteLength":864,
			"byteOffset":32016,
			"target":34962
		},
		{
			"buffer":0,
			"byteLength":864,
			"byteOffset":32880,
			"target":34962
		},
		{
			"buffer":0,
			"byteLength":576,
			"byteOffset":33744,
			"target":34962
		},
		{
			"buffer":0,
			"byteLength":288,
			"byteOffset":34320,
			"target":34963
		},
		{
			"buffer":0,
			"byteLength":720,
			"byteOffset":34608,
			"target":34962
		},
		{
			"buffer":0,
			"byteLength":720,
			"byteOffset":35328,
			"target":34962
		},
		{
			"buffer":0,
			"byteLength":480,
			"byteOffset":36048,
			"target":34962
		},
		{
			"buffer":0,
			"byteLength":240,
			"byteOffset":36528,
			"target":34963
		},
		{
			"buffer":0,
			"byteLength":1440,
			"byteOffset":36768,
			"target":34962
		},
		{
			"buffer":0,
			"byteLength":1440,
			"byteOffset":38208,
			"target":34962
		},
		{
			"buffer":0,
			"byteLength":960,
			"byteOffset":39648,
			"target":34962
		},
		{
			"buffer":0,
			"byteLength":480,
			"byteOffset":40608,
			"target":34963
		},
		{
			"buffer":0,
			"byteLength":864,
			"byteOffset":41088,
			"target":34962
		},
		{
			"buffer":0,
			"byteLength":864,
			"byteOffset":41952,
			"target":34962
		},
		{
			"buffer":0,
			"byteLength":576,
			"byteOffset":42816,
			"target":34962
		},
		{
			"buffer":0,
			"byteLength":864,
			"byteOffset":43392,
			"target":34962
		},
		{
			"buffer":0,
			"byteLength":864,
			"byteOffset":44256,
			"target":34962
		},
		{
			"buffer":0,
			"byteLength":576,
			"byteOffset":45120,
			"target":34962
		}
	],
	"buffers":[
		{
			"byteLength":45696,
			"uri":"LayerDynamicsLogo.gtlf.bin"
		}
	]
}
