<?xml version="1.0" encoding="UTF-8" standalone="no"?> <!-- Created with Vectornator for iOS (http://vectornator.io/) --><!DOCTYPE svg PUBLIC "-//W3C//DTD SVG 1.1//EN" "http://www.w3.org/Graphics/SVG/1.1/DTD/svg11.dtd">
<svg height="100%" style="fill-rule:evenodd;clip-rule:evenodd;stroke-linecap:round;stroke-linejoin:round;" xmlns:xlink="http://www.w3.org/1999/xlink" xmlns="http://www.w3.org/2000/svg" xml:space="preserve" width="100%" xmlns:vectornator="http://vectornator.io" version="1.1" viewBox="0 0 1024 1024">
<metadata>
<vectornator:setting key="DimensionsVisible" value="1"/>
<vectornator:setting key="SnapToGrid" value="0"/>
<vectornator:setting key="SnapToPoints" value="0"/>
<vectornator:setting key="GuidesVisible" value="1"/>
<vectornator:setting key="RulersVisible" value="1"/>
<vectornator:setting key="SnapToEdges" value="0"/>
<vectornator:setting key="DisplayWhiteBackground" value="0"/>
<vectornator:setting key="SnapToGuides" value="1"/>
<vectornator:setting key="GridSpacing" value="36"/>
<vectornator:setting key="Units" value="Pixels"/>
<vectornator:setting key="DynamicGuides" value="0"/>
<vectornator:setting key="New" value="1"/>
</metadata>
<defs/>
<g id="Layer 1" vectornator:layerName="Layer 1">
<path stroke="#ffffff" stroke-opacity="0.362396" stroke-width="2.77" d="M669.253+292.409L669.253+456.971L635.956+470.955L669.253+482.76L669.253+613.831L624.516+633.661L669.253+655.017L669.253+730.553L509.157+795.659L343.753+724.924L343.753+652.152L378.642+640.344L343.753+625.424L343.753+571.924L379.53+558.342L343.753+543.503L343.753+482.676L378.034+470.952L343.753+457.063L343.753+383.803L380.587+367.572L343.753+353.149L343.753+292.409L498.55+221.416L669.253+292.409ZM349.753+296.258L349.753+349.054L396.208+367.247L349.753+387.715L349.753+453.02L395.188+471.427L349.753+486.964L349.753+539.496L395.786+558.59L349.753+576.064L349.753+621.464L395.43+640.999L349.753+656.455L349.753+720.964L509.215+789.158L663.253+726.515L663.253+658.801L610.166+633.46L663.253+609.926L663.253+486.998L619.334+471.428L663.253+452.983L663.253+296.417L498.671+227.96L349.753+296.258ZM655.253+721.132L513.253+778.88L513.253+726.492L655.253+667.325L655.253+721.132ZM505.253+726.495L505.253+778.763L357.753+715.684L357.753+665.314L505.253+726.495ZM519.253+730.491L519.253+769.962L649.253+717.094L649.253+676.324L519.253+730.491ZM363.753+711.724L499.253+769.671L499.253+730.501L363.753+674.298L363.753+711.724ZM596.599+635.846L649.447+661.077L509.248+719.493L365.109+659.705L406.455+645.713L509.222+689.661L571.753+664.006L571.753+616.141L527.794+598.119L596.599+566.559L596.599+635.846ZM542.857+597.81L577.753+612.117L577.753+668.032L509.173+696.166L406.204+652.131L382.144+660.274L509.243+712.994L634.74+660.705L590.599+639.631L590.599+575.912L542.857+597.81ZM563.753+658.641L513.253+679.359L513.253+645.507L563.753+624.791L563.753+658.641ZM505.253+645.504L505.253+679.263L357.753+616.184L357.753+584.795L505.253+645.504ZM519.253+649.532L519.253+670.412L557.753+654.617L557.753+633.736L519.253+649.532ZM363.753+612.224L499.253+670.171L499.253+649.522L363.753+593.752L363.753+612.224ZM509.138+605.606L517.646+602.604L557.211+618.825L509.255+638.499L364.628+578.975L406.558+563.057L509.138+605.606ZM380.94+579.2L509.259+632.011L541.399+618.826L517.485+609.023L508.964+612.031L406.46+569.511L380.94+579.2ZM655.253+604.722L604.599+627.176L604.599+554.088L513.253+595.988L513.253+558.435L655.253+495.955L655.253+604.722ZM519.253+562.349L519.253+586.634L610.599+544.736L610.599+617.953L649.253+600.818L649.253+505.149L519.253+562.349ZM505.253+558.472L505.253+595.335L357.753+534.153L357.753+495.867L505.253+558.472ZM363.753+530.146L499.253+586.35L499.253+562.443L363.753+504.931L363.753+530.146ZM509.28+517.652L608.375+476.031L648.41+490.224L509.224+551.466L364.937+490.226L406.503+476.012L509.28+517.652ZM381.715+490.829L509.181+544.93L632.148+490.825L608.559+482.461L509.321+524.143L406.326+482.414L381.715+490.829ZM505.253+453.068L505.253+507.389L357.753+447.628L357.753+396.155L505.253+453.068ZM655.253+447.666L513.253+507.305L513.253+453.093L563.753+434.102L563.753+456.256L597.899+442.449L597.898+442.448L655.253+419.256L655.253+447.666ZM363.753+443.585L499.253+498.483L499.253+457.183L363.753+404.901L363.753+443.585ZM608.548+444.613L608.549+444.614L557.753+465.155L557.753+442.768L519.253+457.247L519.253+498.277L649.253+443.677L649.253+428.154L608.548+444.613ZM507.839+409.566L507.847+409.569L507.855+409.573L556.502+428.282L509.271+446.043L364.229+390.081L406.738+371.35L507.839+409.566ZM596.599+434.345L571.753+444.391L571.753+425.578L519.917+405.641L596.599+373.074L596.599+434.345ZM379.945+389.712L509.298+439.623L539.624+428.218L505.701+415.172L406.91+377.83L379.945+389.712ZM535.915+405.366L577.753+421.458L577.753+435.494L590.599+430.299L590.599+382.14L535.915+405.366ZM655.253+410.627L604.599+431.11L604.599+363.767L513.253+399.779L513.253+359.566L655.253+304.66L655.253+410.627ZM519.253+363.678L519.253+390.711L610.599+354.702L610.599+422.211L649.253+406.581L649.253+313.412L519.253+363.678ZM505.253+359.601L505.253+400.036L408.116+363.319L408.099+363.312L408.082+363.306L357.753+343.595L357.753+304.584L505.253+359.601ZM363.753+339.501L410.259+357.714L499.253+391.353L499.253+363.767L363.753+313.226L363.753+339.501ZM648.492+298.961L509.227+352.545L364.177+298.443L498.833+236.687L648.492+298.961ZM379.815+297.871L509.187+346.127L632.353+298.768L498.954+243.231L379.815+297.871Z" fill="#000000" stroke-linecap="butt" opacity="1" stroke-linejoin="miter"/>
</g>
</svg>
