<svg width="400" height="138" viewBox="0 0 400 138" xmlns="http://www.w3.org/2000/svg">
  <rect x="0.5" y="0.5" width="399" height="137" rx="6" fill="#1a1b27" stroke="#383d5f" stroke-width="1"/>
  <g>
    <svg x="25" y="22" width="16" height="16" viewBox="0 0 16 16" fill="#bf91f3">
      <path fill-rule="evenodd" d="M2 2.5A2.5 2.5 0 014.5 0h8.75a.75.75 0 01.75.75v12.5a.75.75 0 01-.75.75h-2.5a.75.75 0 110-1.5h1.75v-2h-8a1 1 0 00-.714 1.7.75.75 0 01-1.072 1.05A2.495 2.495 0 012 11.5v-9zm10.5-1V9h-8c-.356 0-.694.074-1 .208V2.5a1 1 0 011-1h8zM5 12.25v3.25a.25.25 0 00.4.2l1.45-1.087a.25.25 0 01.3 0L8.6 15.7a.25.25 0 00.4-.2v-3.25a.25.25 0 00-.25-.25h-3.5a.25.25 0 00-.25.25z"/>
    </svg>
    <text x="48" y="36" fill="#70a5fd" font-size="14" font-weight="bold" font-family="Segoe UI, Ubuntu, Helvetica, Arial, sans-serif">smlx</text>
    <text x="25" y="60" fill="#a9b1d6" font-size="12.5" font-family="Segoe UI, Ubuntu, Helvetica, Arial, sans-serif">Smol MLX—the complete framework for</text>
    <text x="25" y="78" fill="#a9b1d6" font-size="12.5" font-family="Segoe UI, Ubuntu, Helvetica, Arial, sans-serif">lightweight AI on Apple Silicon. Sub-1B p...</text>

    <circle cx="25" cy="120" r="6" fill="#3572A5"/>
    <text x="37" y="124" fill="#a9b1d6" font-size="12" font-family="Segoe UI, Ubuntu, Helvetica, Arial, sans-serif">Python</text>
  </g>
</svg>