<svg width="380" height="230" viewBox="0 0 380 230" xmlns="http://www.w3.org/2000/svg">
  <rect x="0.5" y="0.5" width="379" height="229" rx="6" fill="#1a1b27" stroke="#383d5f" stroke-width="1"/>
  <text x="25" y="35" fill="#70a5fd" font-size="16" font-weight="bold" font-family="Segoe UI, Ubuntu, Helvetica, Arial, sans-serif">LayerDynamics&apos;s GitHub Stats</text>
    <svg x="25" y="47" width="16" height="16" viewBox="0 0 16 16" fill="#bf91f3">
      <path fill-rule="evenodd" d="M8 .25a.75.75 0 01.673.418l1.882 3.815 4.21.612a.75.75 0 01.416 1.279l-3.046 2.97.719 4.192a.75.75 0 01-1.088.791L8 12.347l-3.766 1.98a.75.75 0 01-1.088-.79l.72-4.194L.818 6.374a.75.75 0 01.416-1.28l4.21-.611L7.327.668A.75.75 0 018 .25z"/>
    </svg>
    <text x="50" y="59" fill="#a9b1d6" font-size="13" font-family="Segoe UI, Ubuntu, Helvetica, Arial, sans-serif">Total Stars:</text>
    <text x="355" y="59" fill="#70a5fd" font-size="13" font-weight="bold" font-family="Segoe UI, Ubuntu, Helvetica, Arial, sans-serif" text-anchor="end">22</text>
    <svg x="25" y="79" width="16" height="16" viewBox="0 0 16 16" fill="#bf91f3">
      <path fill-rule="evenodd" d="M1.643 3.143L.427 1.927A.25.25 0 000 2.104V5.75c0 .138.112.25.25.25h3.646a.25.25 0 00.177-.427L2.715 4.215a6.5 6.5 0 11-1.18 4.458.75.75 0 10-1.493.154 8.001 8.001 0 101.6-5.684zM7.75 4a.75.75 0 01.75.75v2.992l2.028.812a.75.75 0 01-.557 1.392l-2.5-1A.75.75 0 017 8.25v-3.5A.75.75 0 017.75 4z"/>
    </svg>
    <text x="50" y="91" fill="#a9b1d6" font-size="13" font-family="Segoe UI, Ubuntu, Helvetica, Arial, sans-serif">Total Commits:</text>
    <text x="355" y="91" fill="#70a5fd" font-size="13" font-weight="bold" font-family="Segoe UI, Ubuntu, Helvetica, Arial, sans-serif" text-anchor="end">426</text>
    <svg x="25" y="111" width="16" height="16" viewBox="0 0 16 16" fill="#bf91f3">
      <path fill-rule="evenodd" d="M2 2.5A2.5 2.5 0 014.5 0h8.75a.75.75 0 01.75.75v12.5a.75.75 0 01-.75.75h-2.5a.75.75 0 110-1.5h1.75v-2h-8a1 1 0 00-.714 1.7.75.75 0 01-1.072 1.05A2.495 2.495 0 012 11.5v-9zm10.5-1V9h-8c-.356 0-.694.074-1 .208V2.5a1 1 0 011-1h8zM5 12.25v3.25a.25.25 0 00.4.2l1.45-1.087a.25.25 0 01.3 0L8.6 15.7a.25.25 0 00.4-.2v-3.25a.25.25 0 00-.25-.25h-3.5a.25.25 0 00-.25.25z"/>
    </svg>
    <text x="50" y="123" fill="#a9b1d6" font-size="13" font-family="Segoe UI, Ubuntu, Helvetica, Arial, sans-serif">Public Repos:</text>
    <text x="355" y="123" fill="#70a5fd" font-size="13" font-weight="bold" font-family="Segoe UI, Ubuntu, Helvetica, Arial, sans-serif" text-anchor="end">105</text>
    <svg x="25" y="143" width="16" height="16" viewBox="0 0 16 16" fill="#bf91f3">
      <path fill-rule="evenodd" d="M5 3.25a.75.75 0 11-1.5 0 .75.75 0 011.5 0zm0 2.122a2.25 2.25 0 10-1.5 0v.878A2.25 2.25 0 005.75 8.5h1.5v2.128a2.251 2.251 0 101.5 0V8.5h1.5a2.25 2.25 0 002.25-2.25v-.878a2.25 2.25 0 10-1.5 0v.878a.75.75 0 01-.75.75h-4.5A.75.75 0 015 6.25v-.878zm3.75 7.378a.75.75 0 11-1.5 0 .75.75 0 011.5 0zm3-8.75a.75.75 0 100-1.5.75.75 0 000 1.5z"/>
    </svg>
    <text x="50" y="155" fill="#a9b1d6" font-size="13" font-family="Segoe UI, Ubuntu, Helvetica, Arial, sans-serif">Total Forks:</text>
    <text x="355" y="155" fill="#70a5fd" font-size="13" font-weight="bold" font-family="Segoe UI, Ubuntu, Helvetica, Arial, sans-serif" text-anchor="end">0</text>
    <svg x="25" y="175" width="16" height="16" viewBox="0 0 16 16" fill="#bf91f3">
      <path fill-rule="evenodd" d="M5.5 3.5a2 2 0 100 4 2 2 0 000-4zM2 5.5a3.5 3.5 0 115.898 2.549 5.507 5.507 0 013.034 4.084.75.75 0 11-1.482.235 4.001 4.001 0 00-7.9 0 .75.75 0 01-1.482-.236A5.507 5.507 0 013.102 8.05 3.49 3.49 0 012 5.5zM11 4a.75.75 0 100 1.5 1.5 1.5 0 01.666 2.844.75.75 0 00-.416.672v.352a.75.75 0 00.574.73c1.2.289 2.162 1.2 2.522 2.372a.75.75 0 101.434-.44 5.01 5.01 0 00-2.56-3.012A3 3 0 0011 4z"/>
    </svg>
    <text x="50" y="187" fill="#a9b1d6" font-size="13" font-family="Segoe UI, Ubuntu, Helvetica, Arial, sans-serif">Followers:</text>
    <text x="355" y="187" fill="#70a5fd" font-size="13" font-weight="bold" font-family="Segoe UI, Ubuntu, Helvetica, Arial, sans-serif" text-anchor="end">25</text>
</svg>