<svg width="380" height="316" viewBox="0 0 380 316" xmlns="http://www.w3.org/2000/svg">
  <rect x="0.5" y="0.5" width="379" height="315" rx="6" fill="#1a1b27" stroke="#383d5f" stroke-width="1"/>
  <text x="25" y="35" fill="#70a5fd" font-size="16" font-weight="bold" font-family="Segoe UI, Ubuntu, Helvetica, Arial, sans-serif">Top Languages</text>
    <text x="25" y="50" fill="#a9b1d6" font-size="12" font-family="Segoe UI, Ubuntu, Helvetica, Arial, sans-serif">Python</text>
    <text x="355" y="50" fill="#a9b1d6" font-size="11" font-family="Segoe UI, Ubuntu, Helvetica, Arial, sans-serif" text-anchor="end">23.9%</text>
    <rect x="25" y="55" width="310" height="8" rx="4" fill="#383d5f"/>
    <rect x="25" y="55" width="74.0" height="8" rx="4" fill="#3572A5"/>
    <text x="25" y="82" fill="#a9b1d6" font-size="12" font-family="Segoe UI, Ubuntu, Helvetica, Arial, sans-serif">C</text>
    <text x="355" y="82" fill="#a9b1d6" font-size="11" font-family="Segoe UI, Ubuntu, Helvetica, Arial, sans-serif" text-anchor="end">23.5%</text>
    <rect x="25" y="87" width="310" height="8" rx="4" fill="#383d5f"/>
    <rect x="25" y="87" width="72.9" height="8" rx="4" fill="#555555"/>
    <text x="25" y="114" fill="#a9b1d6" font-size="12" font-family="Segoe UI, Ubuntu, Helvetica, Arial, sans-serif">Jupyter Notebook</text>
    <text x="355" y="114" fill="#a9b1d6" font-size="11" font-family="Segoe UI, Ubuntu, Helvetica, Arial, sans-serif" text-anchor="end">18.7%</text>
    <rect x="25" y="119" width="310" height="8" rx="4" fill="#383d5f"/>
    <rect x="25" y="119" width="57.9" height="8" rx="4" fill="#8b8b8b"/>
    <text x="25" y="146" fill="#a9b1d6" font-size="12" font-family="Segoe UI, Ubuntu, Helvetica, Arial, sans-serif">Groovy</text>
    <text x="355" y="146" fill="#a9b1d6" font-size="11" font-family="Segoe UI, Ubuntu, Helvetica, Arial, sans-serif" text-anchor="end">8.1%</text>
    <rect x="25" y="151" width="310" height="8" rx="4" fill="#383d5f"/>
    <rect x="25" y="151" width="25.1" height="8" rx="4" fill="#8b8b8b"/>
    <text x="25" y="178" fill="#a9b1d6" font-size="12" font-family="Segoe UI, Ubuntu, Helvetica, Arial, sans-serif">Java</text>
    <text x="355" y="178" fill="#a9b1d6" font-size="11" font-family="Segoe UI, Ubuntu, Helvetica, Arial, sans-serif" text-anchor="end">7.7%</text>
    <rect x="25" y="183" width="310" height="8" rx="4" fill="#383d5f"/>
    <rect x="25" y="183" width="23.7" height="8" rx="4" fill="#8b8b8b"/>
    <text x="25" y="210" fill="#a9b1d6" font-size="12" font-family="Segoe UI, Ubuntu, Helvetica, Arial, sans-serif">TypeScript</text>
    <text x="355" y="210" fill="#a9b1d6" font-size="11" font-family="Segoe UI, Ubuntu, Helvetica, Arial, sans-serif" text-anchor="end">7.0%</text>
    <rect x="25" y="215" width="310" height="8" rx="4" fill="#383d5f"/>
    <rect x="25" y="215" width="21.8" height="8" rx="4" fill="#3178C6"/>
    <text x="25" y="242" fill="#a9b1d6" font-size="12" font-family="Segoe UI, Ubuntu, Helvetica, Arial, sans-serif">C++</text>
    <text x="355" y="242" fill="#a9b1d6" font-size="11" font-family="Segoe UI, Ubuntu, Helvetica, Arial, sans-serif" text-anchor="end">6.3%</text>
    <rect x="25" y="247" width="310" height="8" rx="4" fill="#383d5f"/>
    <rect x="25" y="247" width="19.6" height="8" rx="4" fill="#F34B7D"/>
    <text x="25" y="274" fill="#a9b1d6" font-size="12" font-family="Segoe UI, Ubuntu, Helvetica, Arial, sans-serif">Rust</text>
    <text x="355" y="274" fill="#a9b1d6" font-size="11" font-family="Segoe UI, Ubuntu, Helvetica, Arial, sans-serif" text-anchor="end">1.3%</text>
    <rect x="25" y="279" width="310" height="8" rx="4" fill="#383d5f"/>
    <rect x="25" y="279" width="4.0" height="8" rx="4" fill="#DEA584"/>
</svg>