<svg width="460" height="120" viewBox="0 0 460 120" xmlns="http://www.w3.org/2000/svg">
    <rect x="10" y="10" width="105" height="100" rx="6" fill="none" stroke="#FFD700" stroke-width="1.5" opacity="0.6"/>
    <svg x="55" y="22" width="20" height="20" viewBox="0 0 16 16" fill="#FFD700">
      <path fill-rule="evenodd" d="M2 2.5A2.5 2.5 0 014.5 0h8.75a.75.75 0 01.75.75v12.5a.75.75 0 01-.75.75h-2.5a.75.75 0 110-1.5h1.75v-2h-8a1 1 0 00-.714 1.7.75.75 0 01-1.072 1.05A2.495 2.495 0 012 11.5v-9zm10.5-1V9h-8c-.356 0-.694.074-1 .208V2.5a1 1 0 011-1h8zM5 12.25v3.25a.25.25 0 00.4.2l1.45-1.087a.25.25 0 01.3 0L8.6 15.7a.25.25 0 00.4-.2v-3.25a.25.25 0 00-.25-.25h-3.5a.25.25 0 00-.25.25z"/>
    </svg>
    <text x="65" y="60" fill="#FFD700" font-size="12" font-weight="bold" font-family="Segoe UI, Ubuntu, Helvetica, Arial, sans-serif" text-anchor="middle">SSS</text>
    <text x="65" y="78" fill="#a9b1d6" font-size="11" font-family="Segoe UI, Ubuntu, Helvetica, Arial, sans-serif" text-anchor="middle">Repositories</text>
    <text x="65" y="95" fill="#a9b1d6" font-size="10" font-family="Segoe UI, Ubuntu, Helvetica, Arial, sans-serif" text-anchor="middle" opacity="0.7">103</text>
    <rect x="120" y="10" width="105" height="100" rx="6" fill="none" stroke="#CD7F32" stroke-width="1.5" opacity="0.6"/>
    <svg x="165" y="22" width="20" height="20" viewBox="0 0 16 16" fill="#CD7F32">
      <path fill-rule="evenodd" d="M1.643 3.143L.427 1.927A.25.25 0 000 2.104V5.75c0 .138.112.25.25.25h3.646a.25.25 0 00.177-.427L2.715 4.215a6.5 6.5 0 11-1.18 4.458.75.75 0 10-1.493.154 8.001 8.001 0 101.6-5.684zM7.75 4a.75.75 0 01.75.75v2.992l2.028.812a.75.75 0 01-.557 1.392l-2.5-1A.75.75 0 017 8.25v-3.5A.75.75 0 017.75 4z"/>
    </svg>
    <text x="175" y="60" fill="#CD7F32" font-size="12" font-weight="bold" font-family="Segoe UI, Ubuntu, Helvetica, Arial, sans-serif" text-anchor="middle">S</text>
    <text x="175" y="78" fill="#a9b1d6" font-size="11" font-family="Segoe UI, Ubuntu, Helvetica, Arial, sans-serif" text-anchor="middle">Commits</text>
    <text x="175" y="95" fill="#a9b1d6" font-size="10" font-family="Segoe UI, Ubuntu, Helvetica, Arial, sans-serif" text-anchor="middle" opacity="0.7">267</text>
    <rect x="230" y="10" width="105" height="100" rx="6" fill="none" stroke="#C0C0C0" stroke-width="1.5" opacity="0.6"/>
    <svg x="275" y="22" width="20" height="20" viewBox="0 0 16 16" fill="#C0C0C0">
      <path fill-rule="evenodd" d="M8 .25a.75.75 0 01.673.418l1.882 3.815 4.21.612a.75.75 0 01.416 1.279l-3.046 2.97.719 4.192a.75.75 0 01-1.088.791L8 12.347l-3.766 1.98a.75.75 0 01-1.088-.79l.72-4.194L.818 6.374a.75.75 0 01.416-1.28l4.21-.611L7.327.668A.75.75 0 018 .25z"/>
    </svg>
    <text x="285" y="60" fill="#C0C0C0" font-size="12" font-weight="bold" font-family="Segoe UI, Ubuntu, Helvetica, Arial, sans-serif" text-anchor="middle">SS</text>
    <text x="285" y="78" fill="#a9b1d6" font-size="11" font-family="Segoe UI, Ubuntu, Helvetica, Arial, sans-serif" text-anchor="middle">Stars</text>
    <text x="285" y="95" fill="#a9b1d6" font-size="10" font-family="Segoe UI, Ubuntu, Helvetica, Arial, sans-serif" text-anchor="middle" opacity="0.7">21</text>
    <rect x="340" y="10" width="105" height="100" rx="6" fill="none" stroke="#C0C0C0" stroke-width="1.5" opacity="0.6"/>
    <svg x="385" y="22" width="20" height="20" viewBox="0 0 16 16" fill="#C0C0C0">
      <path fill-rule="evenodd" d="M5.5 3.5a2 2 0 100 4 2 2 0 000-4zM2 5.5a3.5 3.5 0 115.898 2.549 5.507 5.507 0 013.034 4.084.75.75 0 11-1.482.235 4.001 4.001 0 00-7.9 0 .75.75 0 01-1.482-.236A5.507 5.507 0 013.102 8.05 3.49 3.49 0 012 5.5z"/>
    </svg>
    <text x="395" y="60" fill="#C0C0C0" font-size="12" font-weight="bold" font-family="Segoe UI, Ubuntu, Helvetica, Arial, sans-serif" text-anchor="middle">SS</text>
    <text x="395" y="78" fill="#a9b1d6" font-size="11" font-family="Segoe UI, Ubuntu, Helvetica, Arial, sans-serif" text-anchor="middle">Followers</text>
    <text x="395" y="95" fill="#a9b1d6" font-size="10" font-family="Segoe UI, Ubuntu, Helvetica, Arial, sans-serif" text-anchor="middle" opacity="0.7">26</text>
</svg>